<svg width="40" height="40" viewBox="0 0 40 40" fill="none" xmlns="http://www.w3.org/2000/svg">
<path d="M40 20C40 25.5228 37.7614 30.5228 34.1421 34.1421C30.5228 37.7614 25.5228 40 20 40C14.4772 40 9.47715 37.7614 5.85786 34.1421C2.23858 30.5228 0 25.5228 0 20C0 14.4771 2.23858 9.47712 5.85786 5.85783C9.47715 2.23855 14.4772 -3.05176e-05 20 -3.05176e-05C25.5228 -3.05176e-05 30.5228 2.23855 34.1421 5.85783C37.7614 9.47712 40 14.4771 40 20Z" fill="#4D5AE5"/>
<g clip-path="url(#clip0_297016_416)">
<path d="M31.9765 15.0561C31.9203 13.7809 31.7141 12.9042 31.4187 12.1445C31.1139 11.3382 30.6451 10.6162 30.0308 10.0161C29.4307 9.40659 28.704 8.93298 27.9069 8.633C27.1429 8.33759 26.2708 8.13137 24.9955 8.07515C23.7108 8.01416 23.303 8.00006 20.0445 8.00006C16.7861 8.00006 16.3782 8.01416 15.0982 8.07039C13.823 8.12661 12.9463 8.33301 12.1868 8.62824C11.3803 8.93298 10.6583 9.40182 10.0582 10.0161C9.4487 10.6162 8.97528 11.3429 8.67511 12.14C8.3797 12.9042 8.17349 13.7762 8.11726 15.0514C8.05628 16.3361 8.04218 16.744 8.04218 20.0024C8.04218 23.2609 8.05628 23.6687 8.1125 24.9487C8.16873 26.2239 8.37513 27.1006 8.67053 27.8603C8.97528 28.6666 9.4487 29.3886 10.0582 29.9887C10.6583 30.5982 11.385 31.0718 12.1821 31.3718C12.9463 31.6672 13.8183 31.8734 15.0937 31.9297C16.3734 31.9861 16.7815 32 20.0399 32C23.2984 32 23.7062 31.9861 24.9862 31.9297C26.2614 31.8734 27.1381 31.6672 27.8976 31.3718C29.5105 30.7482 30.7857 29.473 31.4093 27.8603C31.7046 27.096 31.911 26.2239 31.9672 24.9487C32.0234 23.6687 32.0375 23.2609 32.0375 20.0024C32.0375 16.744 32.0327 16.3361 31.9765 15.0561ZM29.8153 24.8549C29.7636 26.027 29.5667 26.66 29.4027 27.0819C28.9994 28.1275 28.1696 28.9573 27.124 29.3606C26.7021 29.5247 26.0645 29.7215 24.897 29.773C23.6311 29.8294 23.2515 29.8433 20.0493 29.8433C16.847 29.8433 16.4626 29.8294 15.2013 29.773C14.0292 29.7215 13.3963 29.5247 12.9743 29.3606C12.454 29.1683 11.9804 28.8635 11.596 28.465C11.1975 28.0758 10.8928 27.607 10.7005 27.0867C10.5364 26.6647 10.3395 26.027 10.288 24.8597C10.2316 23.5938 10.2177 23.214 10.2177 20.0117C10.2177 16.8095 10.2316 16.4251 10.288 15.164C10.3395 13.9919 10.5364 13.359 10.7005 12.937C10.8928 12.4165 11.1975 11.9431 11.6008 11.5585C11.9898 11.16 12.4586 10.8552 12.9791 10.6631C13.4011 10.499 14.0388 10.3021 15.2061 10.2505C16.472 10.1943 16.8518 10.1802 20.0538 10.1802C23.2608 10.1802 23.6405 10.1943 24.9018 10.2505C26.0739 10.3021 26.7068 10.499 27.1288 10.6631C27.6491 10.8552 28.1227 11.16 28.5071 11.5585C28.9056 11.9477 29.2104 12.4165 29.4027 12.937C29.5667 13.359 29.7636 13.9965 29.8153 15.164C29.8715 16.4299 29.8856 16.8095 29.8856 20.0117C29.8856 23.214 29.8715 23.589 29.8153 24.8549Z" fill="#F4F4FD"/>
<path d="M20.0445 13.8371C16.6409 13.8371 13.8793 16.5985 13.8793 20.0024C13.8793 23.4062 16.6409 26.1676 20.0445 26.1676C23.4484 26.1676 26.2098 23.4062 26.2098 20.0024C26.2098 16.5985 23.4484 13.8371 20.0445 13.8371ZM20.0445 24.0016C17.8364 24.0016 16.0453 22.2107 16.0453 20.0024C16.0453 17.794 17.8364 16.0031 20.0445 16.0031C22.2529 16.0031 24.0438 17.794 24.0438 20.0024C24.0438 22.2107 22.2529 24.0016 20.0445 24.0016Z" fill="#F4F4FD"/>
<path d="M27.893 13.5934C27.893 14.3882 27.2486 15.0327 26.4535 15.0327C25.6587 15.0327 25.0142 14.3882 25.0142 13.5934C25.0142 12.7983 25.6587 12.1541 26.4535 12.1541C27.2486 12.1541 27.893 12.7983 27.893 13.5934Z" fill="#F4F4FD"/>
</g>
<defs>
<clipPath id="clip0_297016_416">
<rect width="24" height="24" fill="white" transform="translate(8 8.00006)"/>
</clipPath>
</defs>
</svg>


<svg width="40" height="40" viewBox="0 0 40 40" fill="none" xmlns="http://www.w3.org/2000/svg">
<path d="M40 19.9999C40 25.5228 37.7614 30.5228 34.1421 34.1421C30.5228 37.7614 25.5228 39.9999 20 39.9999C14.4772 39.9999 9.47715 37.7614 5.85786 34.1421C2.23858 30.5228 0 25.5228 0 19.9999C0 14.4771 2.23858 9.47709 5.85786 5.8578C9.47715 2.23852 14.4772 -6.10352e-05 20 -6.10352e-05C25.5228 -6.10352e-05 30.5228 2.23852 34.1421 5.8578C37.7614 9.47709 40 14.4771 40 19.9999Z" fill="#31D0AA"/>
<g clip-path="url(#clip0_297016_418)">
<path d="M31.9765 15.0561C31.9203 13.7809 31.7141 12.9042 31.4187 12.1445C31.1139 11.3382 30.6451 10.6162 30.0308 10.0161C29.4307 9.40659 28.704 8.93298 27.9069 8.633C27.1429 8.33759 26.2708 8.13137 24.9955 8.07515C23.7108 8.01416 23.303 8.00006 20.0445 8.00006C16.7861 8.00006 16.3782 8.01416 15.0982 8.07039C13.823 8.12661 12.9463 8.33301 12.1868 8.62824C11.3803 8.93298 10.6583 9.40182 10.0582 10.0161C9.4487 10.6162 8.97528 11.3429 8.67511 12.14C8.3797 12.9042 8.17349 13.7762 8.11726 15.0514C8.05628 16.3361 8.04218 16.744 8.04218 20.0024C8.04218 23.2609 8.05628 23.6687 8.1125 24.9487C8.16873 26.2239 8.37513 27.1006 8.67053 27.8603C8.97528 28.6666 9.4487 29.3886 10.0582 29.9887C10.6583 30.5982 11.385 31.0718 12.1821 31.3718C12.9463 31.6672 13.8183 31.8734 15.0937 31.9297C16.3734 31.9861 16.7815 32 20.0399 32C23.2984 32 23.7062 31.9861 24.9862 31.9297C26.2614 31.8734 27.1381 31.6672 27.8976 31.3718C29.5105 30.7482 30.7857 29.473 31.4093 27.8603C31.7046 27.096 31.911 26.2239 31.9672 24.9487C32.0234 23.6687 32.0375 23.2609 32.0375 20.0024C32.0375 16.744 32.0327 16.3361 31.9765 15.0561ZM29.8153 24.8549C29.7636 26.027 29.5667 26.66 29.4027 27.0819C28.9994 28.1275 28.1696 28.9573 27.124 29.3606C26.7021 29.5247 26.0645 29.7215 24.897 29.773C23.6311 29.8294 23.2515 29.8433 20.0493 29.8433C16.847 29.8433 16.4626 29.8294 15.2013 29.773C14.0292 29.7215 13.3963 29.5247 12.9743 29.3606C12.454 29.1683 11.9804 28.8635 11.596 28.465C11.1975 28.0758 10.8928 27.607 10.7005 27.0867C10.5364 26.6647 10.3395 26.027 10.288 24.8597C10.2316 23.5938 10.2177 23.214 10.2177 20.0117C10.2177 16.8095 10.2316 16.4251 10.288 15.164C10.3395 13.9919 10.5364 13.359 10.7005 12.937C10.8928 12.4165 11.1975 11.9431 11.6008 11.5585C11.9898 11.16 12.4586 10.8552 12.9791 10.6631C13.4011 10.499 14.0388 10.3021 15.2061 10.2505C16.472 10.1943 16.8518 10.1802 20.0538 10.1802C23.2608 10.1802 23.6405 10.1943 24.9018 10.2505C26.0739 10.3021 26.7068 10.499 27.1288 10.6631C27.6491 10.8552 28.1227 11.16 28.5071 11.5585C28.9056 11.9477 29.2104 12.4165 29.4027 12.937C29.5667 13.359 29.7636 13.9965 29.8153 15.164C29.8715 16.4299 29.8856 16.8095 29.8856 20.0117C29.8856 23.214 29.8715 23.589 29.8153 24.8549Z" fill="#F4F4FD"/>
<path d="M20.0445 13.8371C16.6409 13.8371 13.8793 16.5985 13.8793 20.0024C13.8793 23.4062 16.6409 26.1676 20.0445 26.1676C23.4484 26.1676 26.2098 23.4062 26.2098 20.0024C26.2098 16.5985 23.4484 13.8371 20.0445 13.8371ZM20.0445 24.0016C17.8364 24.0016 16.0453 22.2107 16.0453 20.0024C16.0453 17.794 17.8364 16.0031 20.0445 16.0031C22.2529 16.0031 24.0438 17.794 24.0438 20.0024C24.0438 22.2107 22.2529 24.0016 20.0445 24.0016Z" fill="#F4F4FD"/>
<path d="M27.893 13.5934C27.893 14.3882 27.2486 15.0327 26.4535 15.0327C25.6587 15.0327 25.0142 14.3882 25.0142 13.5934C25.0142 12.7983 25.6587 12.1541 26.4535 12.1541C27.2486 12.1541 27.893 12.7983 27.893 13.5934Z" fill="#F4F4FD"/>
</g>
<defs>
<clipPath id="clip0_297016_418">
<rect width="24" height="24" fill="white" transform="translate(8 8.00006)"/>
</clipPath>
</defs>
</svg>


<svg width="40" height="40" viewBox="0 0 40 40" fill="none" xmlns="http://www.w3.org/2000/svg">
<path d="M40 20C40 25.5228 37.7614 30.5228 34.1421 34.1421C30.5228 37.7614 25.5228 40 20 40C14.4772 40 9.47715 37.7614 5.85786 34.1421C2.23858 30.5228 0 25.5228 0 20C0 14.4771 2.23858 9.47712 5.85786 5.85783C9.47715 2.23855 14.4772 -3.05176e-05 20 -3.05176e-05C25.5228 -3.05176e-05 30.5228 2.23855 34.1421 5.85783C37.7614 9.47712 40 14.4771 40 20Z" fill="#4D5AE5"/>
<g clip-path="url(#clip0_297016_424)">
<path d="M32 12.5586C31.1075 12.9501 30.1565 13.2096 29.165 13.3356C30.185 12.7266 30.9635 11.7696 31.3295 10.6161C30.3785 11.1831 29.3285 11.5836 28.2095 11.8071C27.3065 10.8456 26.0195 10.2501 24.6155 10.2501C21.8915 10.2501 19.6985 12.4611 19.6985 15.1716C19.6985 15.5616 19.7315 15.9366 19.8125 16.2936C15.722 16.0941 12.1025 14.1336 9.671 11.1471C9.2465 11.8836 8.9975 12.7266 8.9975 13.6341C8.9975 15.3381 9.875 16.8486 11.183 17.7231C10.3925 17.7081 9.617 17.4786 8.96 17.1171C8.96 17.1321 8.96 17.1516 8.96 17.1711C8.96 19.5621 10.6655 21.5481 12.902 22.0056C12.5015 22.1151 12.065 22.1676 11.612 22.1676C11.297 22.1676 10.979 22.1496 10.6805 22.0836C11.318 24.0321 13.127 25.4646 15.278 25.5111C13.604 26.8206 11.4785 27.6096 9.1775 27.6096C8.774 27.6096 8.387 27.5916 8 27.5421C10.1795 28.9476 12.7625 29.7501 15.548 29.7501C24.602 29.7501 29.552 22.2501 29.552 15.7491C29.552 15.5316 29.5445 15.3216 29.534 15.1131C30.5105 14.4201 31.331 13.5546 32 12.5586Z" fill="#F4F4FD"/>
</g>
<defs>
<clipPath id="clip0_297016_424">
<rect width="24" height="24" fill="white" transform="translate(8 8.00006)"/>
</clipPath>
</defs>
</svg>


<svg width="40" height="40" viewBox="0 0 40 40" fill="none" xmlns="http://www.w3.org/2000/svg">
<path d="M40 19.9999C40 25.5228 37.7614 30.5228 34.1421 34.1421C30.5228 37.7614 25.5228 39.9999 20 39.9999C14.4772 39.9999 9.47715 37.7614 5.85786 34.1421C2.23858 30.5228 0 25.5228 0 19.9999C0 14.4771 2.23858 9.47709 5.85786 5.8578C9.47715 2.23852 14.4772 -6.10352e-05 20 -6.10352e-05C25.5228 -6.10352e-05 30.5228 2.23852 34.1421 5.8578C37.7614 9.47709 40 14.4771 40 19.9999Z" fill="#31D0AA"/>
<g clip-path="url(#clip0_297016_426)">
<path d="M32 12.5586C31.1075 12.9501 30.1565 13.2096 29.165 13.3356C30.185 12.7266 30.9635 11.7696 31.3295 10.6161C30.3785 11.1831 29.3285 11.5836 28.2095 11.8071C27.3065 10.8456 26.0195 10.2501 24.6155 10.2501C21.8915 10.2501 19.6985 12.4611 19.6985 15.1716C19.6985 15.5616 19.7315 15.9366 19.8125 16.2936C15.722 16.0941 12.1025 14.1336 9.671 11.1471C9.2465 11.8836 8.9975 12.7266 8.9975 13.6341C8.9975 15.3381 9.875 16.8486 11.183 17.7231C10.3925 17.7081 9.617 17.4786 8.96 17.1171C8.96 17.1321 8.96 17.1516 8.96 17.1711C8.96 19.5621 10.6655 21.5481 12.902 22.0056C12.5015 22.1151 12.065 22.1676 11.612 22.1676C11.297 22.1676 10.979 22.1496 10.6805 22.0836C11.318 24.0321 13.127 25.4646 15.278 25.5111C13.604 26.8206 11.4785 27.6096 9.1775 27.6096C8.774 27.6096 8.387 27.5916 8 27.5421C10.1795 28.9476 12.7625 29.7501 15.548 29.7501C24.602 29.7501 29.552 22.2501 29.552 15.7491C29.552 15.5316 29.5445 15.3216 29.534 15.1131C30.5105 14.4201 31.331 13.5546 32 12.5586Z" fill="#F4F4FD"/>
</g>
<defs>
<clipPath id="clip0_297016_426">
<rect width="24" height="24" fill="white" transform="translate(8 8.00006)"/>
</clipPath>
</defs>
</svg>


<svg width="40" height="40" viewBox="0 0 40 40" fill="none" xmlns="http://www.w3.org/2000/svg">
<path d="M40 20C40 25.5228 37.7614 30.5228 34.1421 34.1421C30.5228 37.7614 25.5228 40 20 40C14.4772 40 9.47715 37.7614 5.85786 34.1421C2.23858 30.5228 0 25.5228 0 20C0 14.4771 2.23858 9.47712 5.85786 5.85783C9.47715 2.23855 14.4772 -3.05176e-05 20 -3.05176e-05C25.5228 -3.05176e-05 30.5228 2.23855 34.1421 5.85783C37.7614 9.47712 40 14.4771 40 20Z" fill="#4D5AE5"/>
<g clip-path="url(#clip0_297016_432)">
<path d="M23.997 11.9851H26.188V8.16906C25.81 8.11706 24.51 8.00006 22.996 8.00006C19.837 8.00006 17.673 9.98706 17.673 13.6391V17.0001H14.187V21.2661H17.673V32.0001H21.947V21.2671H25.292L25.823 17.0011H21.946V14.0621C21.947 12.8291 22.279 11.9851 23.997 11.9851Z" fill="#F4F4FD"/>
</g>
<defs>
<clipPath id="clip0_297016_432">
<rect width="24" height="24" fill="white" transform="translate(8 8.00006)"/>
</clipPath>
</defs>
</svg>


<svg width="40" height="40" viewBox="0 0 40 40" fill="none" xmlns="http://www.w3.org/2000/svg">
<path d="M40 19.9999C40 25.5228 37.7614 30.5228 34.1421 34.1421C30.5228 37.7614 25.5228 39.9999 20 39.9999C14.4772 39.9999 9.47715 37.7614 5.85786 34.1421C2.23858 30.5228 0 25.5228 0 19.9999C0 14.4771 2.23858 9.47709 5.85786 5.8578C9.47715 2.23852 14.4772 -6.10352e-05 20 -6.10352e-05C25.5228 -6.10352e-05 30.5228 2.23852 34.1421 5.8578C37.7614 9.47709 40 14.4771 40 19.9999Z" fill="#31D0AA"/>
<g clip-path="url(#clip0_297016_434)">
<path d="M23.997 11.9851H26.188V8.16906C25.81 8.11706 24.51 8.00006 22.996 8.00006C19.837 8.00006 17.673 9.98706 17.673 13.6391V17.0001H14.187V21.2661H17.673V32.0001H21.947V21.2671H25.292L25.823 17.0011H21.946V14.0621C21.947 12.8291 22.279 11.9851 23.997 11.9851Z" fill="#F4F4FD"/>
</g>
<defs>
<clipPath id="clip0_297016_434">
<rect width="24" height="24" fill="white" transform="translate(8 8.00006)"/>
</clipPath>
</defs>
</svg>


<svg width="40" height="40" viewBox="0 0 40 40" fill="none" xmlns="http://www.w3.org/2000/svg">
<path d="M40 20C40 25.5228 37.7614 30.5228 34.1421 34.1421C30.5228 37.7614 25.5228 40 20 40C14.4772 40 9.47715 37.7614 5.85786 34.1421C2.23858 30.5228 0 25.5228 0 20C0 14.4771 2.23858 9.47712 5.85786 5.85783C9.47715 2.23855 14.4772 -3.05176e-05 20 -3.05176e-05C25.5228 -3.05176e-05 30.5228 2.23855 34.1421 5.85783C37.7614 9.47712 40 14.4771 40 20Z" fill="#4D5AE5"/>
<g clip-path="url(#clip0_297016_438)">
<path d="M31.994 32.0001V31.9991H32V23.1971C32 18.8911 31.073 15.5741 26.039 15.5741C23.619 15.5741 21.995 16.9021 21.332 18.1611H21.262V15.9761H16.489V31.9991H21.459V24.0651C21.459 21.9761 21.855 19.9561 24.442 19.9561C26.991 19.9561 27.029 22.3401 27.029 24.1991V32.0001H31.994Z" fill="#F4F4FD"/>
<path d="M8.396 15.977H13.372V32H8.396V15.977Z" fill="#F4F4FD"/>
<path d="M10.882 8.00006C9.291 8.00006 8 9.29106 8 10.8821C8 12.4731 9.291 13.7911 10.882 13.7911C12.473 13.7911 13.764 12.4731 13.764 10.8821C13.763 9.29106 12.472 8.00006 10.882 8.00006V8.00006Z" fill="#F4F4FD"/>
</g>
<defs>
<clipPath id="clip0_297016_438">
<rect width="24" height="24" fill="white" transform="translate(8 8.00006)"/>
</clipPath>
</defs>
</svg>


<svg width="40" height="40" viewBox="0 0 40 40" fill="none" xmlns="http://www.w3.org/2000/svg">
<path d="M40 19.9999C40 25.5228 37.7614 30.5228 34.1421 34.1421C30.5228 37.7614 25.5228 39.9999 20 39.9999C14.4772 39.9999 9.47715 37.7614 5.85786 34.1421C2.23858 30.5228 0 25.5228 0 19.9999C0 14.4771 2.23858 9.47709 5.85786 5.8578C9.47715 2.23852 14.4772 -6.10352e-05 20 -6.10352e-05C25.5228 -6.10352e-05 30.5228 2.23852 34.1421 5.8578C37.7614 9.47709 40 14.4771 40 19.9999Z" fill="#31D0AA"/>
<g clip-path="url(#clip0_297016_440)">
<path d="M31.994 32.0001V31.9991H32V23.1971C32 18.8911 31.073 15.5741 26.039 15.5741C23.619 15.5741 21.995 16.9021 21.332 18.1611H21.262V15.9761H16.489V31.9991H21.459V24.0651C21.459 21.9761 21.855 19.9561 24.442 19.9561C26.991 19.9561 27.029 22.3401 27.029 24.1991V32.0001H31.994Z" fill="#F4F4FD"/>
<path d="M8.396 15.977H13.372V32H8.396V15.977Z" fill="#F4F4FD"/>
<path d="M10.882 8.00006C9.291 8.00006 8 9.29106 8 10.8821C8 12.4731 9.291 13.7911 10.882 13.7911C12.473 13.7911 13.764 12.4731 13.764 10.8821C13.763 9.29106 12.472 8.00006 10.882 8.00006V8.00006Z" fill="#F4F4FD"/>
</g>
<defs>
<clipPath id="clip0_297016_440">
<rect width="24" height="24" fill="white" transform="translate(8 8.00006)"/>
</clipPath>
</defs>
</svg>


<svg xmlns="http://www.w3.org/2000/svg" width="64" height="64" viewBox="0 0 64 64" fill="none">
  <path d="M61.5463 44.1952L44.6599 27.1851L46.534 17.9541C47.0176 18.1429 47.5318 18.2416 48.0508 18.2453H48.0636C50.4482 18.2735 52.404 16.3633 52.4323 13.9788C52.4606 11.5943 50.5503 9.6384 48.1658 9.61013C45.7812 9.582 43.8254 11.4921 43.7971 13.8767C43.7911 14.3869 43.8755 14.8941 44.0466 15.3749L34.1266 16.5856L17.9452 0.32C17.7467 0.117467 17.4757 0.00226667 17.1921 0C16.9121 0.00146667 16.644 0.112933 16.4455 0.3104L13.4204 3.3184C13.004 3.73493 13.004 4.41013 13.4204 4.82667L15.0481 6.47787C8.74201 18.0737 10.7903 32.4335 20.0871 41.8037C20.1724 41.8853 20.2713 41.9513 20.3793 41.9989C20.3121 42.3599 20.2771 42.7261 20.2748 43.0933V55.4667H7.47481C4.53081 55.4701 2.14495 57.856 2.14148 60.8V62.9333C2.14148 63.5224 2.61908 64 3.20815 64H52.2748C52.8639 64 53.3415 63.5224 53.3415 62.9333V60.8C53.338 57.856 50.9522 55.4701 48.0082 55.4667H35.2082V49.9829C37.2134 50.4035 39.2564 50.6179 41.3052 50.6229C46.2215 50.6176 51.0595 49.392 55.3852 47.056L57.0215 48.7019C57.22 48.9044 57.491 49.0196 57.7746 49.0219C58.0546 49.0204 58.3227 48.9089 58.5212 48.7115L61.5463 45.7035C61.9627 45.2869 61.9627 44.6117 61.5463 44.1952ZM46.5596 12.4661C47.395 11.6352 48.7458 11.6389 49.5766 12.4743C50.4075 13.3096 50.4038 14.6604 49.5684 15.4912C49.1686 15.8889 48.6275 16.1121 48.0635 16.112H48.0571C46.879 16.1059 45.9287 15.1459 45.9348 13.9676C45.9378 13.4036 46.1639 12.8639 46.5638 12.4661H46.5596ZM44.0487 19.4752L42.8519 25.3664L40.5009 23.0016L44.0487 19.4752ZM42.837 17.6715L38.997 21.4891L36.0263 18.5024L42.837 17.6715ZM48.0082 57.6C49.7755 57.6 51.2082 59.0327 51.2082 60.8V61.8667H4.27481V60.8C4.27481 59.0327 5.70748 57.6 7.47481 57.6H48.0082ZM33.0748 53.3333V55.4667H22.4081V53.3333H33.0748ZM22.4081 51.2V43.0933C22.4081 40.5056 24.8007 38.4 27.7415 38.4C30.6823 38.4 33.0748 40.5056 33.0748 43.0933V51.2H22.4081ZM35.2082 47.808V43.0933C35.2082 39.3291 31.8588 36.2667 27.7415 36.2667C25.0793 36.2259 22.59 37.5809 21.1793 39.8389C13.0639 31.2913 11.2364 18.5485 16.6221 8.06467L53.8258 45.4816C48.081 48.404 41.4955 49.2268 35.2082 47.808ZM57.7863 46.4405L56.2834 44.9291L17.1815 5.59147L15.6721 4.07893L17.1815 2.57493L33.0513 18.5344C33.0588 18.5344 33.0631 18.5483 33.0706 18.5536L59.2999 44.9365L57.7863 46.4405Z" fill="#2E2F42"/>
  <path d="M27.7511 40.5333H27.7415C25.9742 40.5306 24.5394 41.9612 24.5367 43.7285C24.534 45.4958 25.9646 46.9306 27.7319 46.9333H27.7415C29.5088 46.936 30.9436 45.5054 30.9463 43.7381C30.9489 41.9708 29.5184 40.536 27.7511 40.5333ZM28.4978 44.4896C28.297 44.6893 28.0248 44.801 27.7415 44.8C27.1524 44.7969 26.6774 44.3169 26.6804 43.7278C26.6819 43.4458 26.795 43.176 26.9948 42.977C27.1934 42.7796 27.4615 42.6681 27.7415 42.6666C28.3306 42.6697 28.8056 43.1497 28.8026 43.7388C28.8011 44.0208 28.688 44.2906 28.4882 44.4896H28.4978Z" fill="#4D5AE5"/>
</svg>